# xmcd CD database file
#
# Track frame offsets:
#	150
#	24351
#	55583
#	84335
#	102639
#	124968
#	148566
#	170100
#	185804
#	225324
#	242252
#	265242
#
# Disc length: 3622 seconds
#
# Revision: 0
# Processed by: cddbd v1.5.1PL2 Copyright (c) Steve Scherf et al.
# Submitted via: CDex 1.70beta1
#
DISCID=9c0e240c
DTITLE=Various Artist - Romantic Fantasies
DYEAR=2002
DGENRE=New Age
TTITLE0=Svensson - Late Arrival
TTITLE1=Svensson - Syracus
TTITLE2=X-Dee - Island of Dreams
TTITLE3=Morscheck and Burgmann - Zwischenwasser
TTITLE4=Tim Mac Brian - La Nuit Des Fees
TTITLE5=Blue Star - Tune In And Breathe
TTITLE6=Lenny Mac Dowell - Gantha
TTITLE7=Maximus and Felix - Il Mare Dell' Eternita
TTITLE8=Maximus and Felix - The Light From North
TTITLE9=P. Schick - U. Wedlich - Siroco
TTITLE10=Lenny Mac Dowell - Open The Door For The First Dream
TTITLE11=Tim Mac Brian - Nakku Matti
EXTD=YEAR: 2002
EXTT0=
EXTT1=
EXTT2=
EXTT3=
EXTT4=
EXTT5=
EXTT6=
EXTT7=
EXTT8=
EXTT9=
EXTT10=
EXTT11=
PLAYORDER=
